<svg width="27" height="27" viewBox="0 0 27 27" fill="none" xmlns="http://www.w3.org/2000/svg">
<path d="M21.9893 20.1983C22.227 20.4361 22.3606 20.7586 22.3606 21.0948C22.3606 21.4311 22.227 21.7536 21.9893 21.9913C21.7515 22.2291 21.429 22.3627 21.0928 22.3627C20.7565 22.3627 20.434 22.2291 20.1963 21.9913L13.5001 15.293L6.80176 21.9892C6.56399 22.227 6.24152 22.3605 5.90527 22.3605C5.56902 22.3605 5.24655 22.227 5.00879 21.9892C4.77102 21.7514 4.63745 21.429 4.63745 21.0927C4.63745 20.7565 4.77102 20.434 5.00879 20.1962L11.7071 13.5L5.0109 6.80171C4.77313 6.56395 4.63956 6.24147 4.63956 5.90523C4.63956 5.56898 4.77313 5.24651 5.0109 5.00874C5.24866 4.77098 5.57113 4.63741 5.90738 4.63741C6.24363 4.63741 6.5661 4.77098 6.80387 5.00874L13.5001 11.7071L20.1984 5.00769C20.4362 4.76993 20.7586 4.63635 21.0949 4.63635C21.4311 4.63635 21.7536 4.76993 21.9914 5.00769C22.2291 5.24545 22.3627 5.56793 22.3627 5.90417C22.3627 6.24042 22.2291 6.56289 21.9914 6.80066L15.293 13.5L21.9893 20.1983Z" fill="#2E2E2E"/>
</svg>
