<svg width="24" height="24" viewBox="0 0 24 24" fill="none" xmlns="http://www.w3.org/2000/svg">
<path d="M16.17 7.83006L2 22.0001M16.17 7.83006C16.4398 7.55988 16.652 7.23787 16.7939 6.88343C16.9358 6.529 17.0045 6.14949 16.9957 5.7678C16.987 5.38611 16.901 5.01015 16.743 4.6626C16.585 4.31504 16.3582 4.00309 16.0763 3.74557C15.7945 3.48804 15.4634 3.29028 15.103 3.1642C14.7426 3.03813 14.3605 2.98635 13.9795 3.012C13.5986 3.03765 13.2268 3.1402 12.8866 3.31345C12.5464 3.4867 12.2448 3.72707 12 4.02006C11.7552 3.72707 11.4536 3.4867 11.1134 3.31345C10.7732 3.1402 10.4014 3.03765 10.0205 3.012C9.63955 2.98635 9.25737 3.03813 8.897 3.1642C8.53663 3.29028 8.20553 3.48804 7.92367 3.74557C7.64181 4.00309 7.41504 4.31504 7.25702 4.6626C7.09901 5.01015 7.01304 5.38611 7.00428 5.7678C6.99553 6.14949 7.06418 6.529 7.20609 6.88343C7.34801 7.23787 7.56024 7.55988 7.83 7.83006M16.17 7.83006C16.4402 7.5603 16.7622 7.34806 17.1166 7.20615C17.4711 7.06424 17.8506 6.99559 18.2323 7.00434C18.6139 7.01309 18.9899 7.09907 19.3375 7.25708C19.685 7.41509 19.997 7.64187 20.2545 7.92372C20.512 8.20558 20.7098 8.53668 20.8359 8.89706C20.9619 9.25743 21.0137 9.6396 20.9881 10.0205C20.9624 10.4015 20.8599 10.7732 20.6866 11.1135C20.5134 11.4537 20.273 11.7553 19.98 12.0001C20.273 12.2448 20.5134 12.5464 20.6866 12.8867C20.8599 13.2269 20.9624 13.5987 20.9881 13.9796C21.0137 14.3605 20.9619 14.7427 20.8359 15.1031C20.7098 15.4634 20.512 15.7945 20.2545 16.0764C19.997 16.3582 19.685 16.585 19.3375 16.743C18.9899 16.901 18.6139 16.987 18.2323 16.9958C17.8506 17.0045 17.4711 16.9359 17.1166 16.794C16.7622 16.652 16.4402 16.4398 16.17 16.1701M4.02 12.0001C3.72701 11.7553 3.48664 11.4537 3.31339 11.1135C3.14014 10.7732 3.0376 10.4015 3.01195 10.0205C2.9863 9.6396 3.03807 9.25743 3.16415 8.89706C3.29022 8.53668 3.48799 8.20558 3.74551 7.92372C4.00304 7.64187 4.31498 7.41509 4.66254 7.25708C5.0101 7.09907 5.38606 7.01309 5.76775 7.00434C6.14943 6.99559 6.52894 7.06424 6.88338 7.20615C7.23781 7.34806 7.55983 7.5603 7.83 7.83006M7.83 7.83006L16.17 16.1701M16.17 16.1701C16.4398 16.4402 16.652 16.7622 16.7939 17.1167C16.9358 17.4711 17.0045 17.8506 16.9957 18.2323C16.987 18.614 16.901 18.99 16.743 19.3375C16.585 19.6851 16.3582 19.997 16.0763 20.2545C15.7945 20.5121 15.4634 20.7098 15.103 20.8359C14.7426 20.962 14.3605 21.0138 13.9795 20.9881C13.5986 20.9625 13.2268 20.8599 12.8866 20.6867C12.5464 20.5134 12.2448 20.273 12 19.9801C11.7552 20.273 11.4536 20.5134 11.1134 20.6867C10.7732 20.8599 10.4014 20.9625 10.0205 20.9881C9.63955 21.0138 9.25737 20.962 8.897 20.8359C8.53663 20.7098 8.20553 20.5121 7.92367 20.2545C7.64181 19.997 7.41504 19.6851 7.25702 19.3375C7.09901 18.99 7.01304 18.614 7.00428 18.2323C6.99553 17.8506 7.06418 17.4711 7.20609 17.1167C7.34801 16.7622 7.56024 16.4402 7.83 16.1701C7.27702 16.6779 6.54494 16.9454 5.79479 16.9135C5.04465 16.8816 4.33789 16.553 3.83 16.0001C3.32211 15.4471 3.05469 14.715 3.08657 13.9648C3.11845 13.2147 3.44702 12.5079 4 12.0001" stroke="white" stroke-width="2" stroke-linecap="round" stroke-linejoin="round"/>
</svg>
