<svg width="24" height="24" viewBox="0 0 24 24" fill="none" xmlns="http://www.w3.org/2000/svg">
<path d="M11 2C12.9425 2.00013 14.8187 2.70688 16.2785 3.98843C17.7384 5.26999 18.6822 7.03882 18.934 8.965L21.184 12.504C21.332 12.737 21.302 13.084 20.959 13.232L19 14.07V17C19 17.5304 18.7892 18.0391 18.4142 18.4142C18.0391 18.7893 17.5304 19 17 19H15.001L15 22H5.99995V18.306C5.99995 17.126 5.56395 16.009 4.75495 15.001C3.81266 13.8245 3.22193 12.4056 3.05085 10.908C2.87976 9.41036 3.13527 7.89486 3.78794 6.53611C4.44062 5.17737 5.46389 4.03066 6.73986 3.22811C8.01583 2.42557 9.49258 1.99985 11 2ZM11 4C9.86953 3.99995 8.76209 4.31925 7.80521 4.9211C6.84833 5.52295 6.08094 6.38287 5.59143 7.40181C5.10192 8.42075 4.91022 9.55724 5.0384 10.6804C5.16658 11.8035 5.60944 12.8676 6.31595 13.75C7.40995 15.114 7.99995 16.667 7.99995 18.306V20H13L13.002 17H17V12.752L18.55 12.088L17.007 9.663L16.95 9.221C16.7606 7.77691 16.0526 6.45095 14.9579 5.49033C13.8631 4.52972 12.4564 4.00002 11 4ZM10.47 7.763L11 8.293L11.53 7.763C11.8599 7.44416 12.302 7.26768 12.7608 7.27157C13.2197 7.27546 13.6586 7.45942 13.9831 7.78382C14.3077 8.10822 14.4918 8.5471 14.4959 9.00595C14.5 9.46479 14.3237 9.90688 14.005 10.237L11 13.243L7.99495 10.237C7.82784 10.0755 7.69456 9.8824 7.60289 9.66888C7.51122 9.45535 7.46299 9.22571 7.46102 8.99334C7.45904 8.76098 7.50337 8.53055 7.5914 8.3155C7.67944 8.10045 7.80942 7.90509 7.97377 7.74081C8.13811 7.57653 8.33353 7.44662 8.54862 7.35868C8.7637 7.27073 8.99415 7.2265 9.22651 7.22856C9.45888 7.23063 9.6885 7.27895 9.90199 7.37071C10.1155 7.46247 10.3086 7.59582 10.47 7.763Z" fill="white"/>
</svg>
